<?xml version="1.0" encoding="UTF-8" standalone="no"?>
<!DOCTYPE svg PUBLIC "-//W3C//DTD SVG 1.1//EN" "http://www.w3.org/Graphics/SVG/1.1/DTD/svg11.dtd">
<svg width="100%" height="100%" viewBox="0 -100 384 420" version="1.1" xmlns="http://www.w3.org/2000/svg" xmlns:xlink="http://www.w3.org/1999/xlink" xml:space="preserve" style="fill-rule:evenodd;clip-rule:evenodd;stroke-linecap:square;stroke-linejoin:round;stroke-miterlimit:1.5;">
    <style>
        svg {
            font-family: 'RobotoMono-Bold', 'Roboto Mono', monospace;
            font-size: 5.6px;
        }

        .connector-gold {
            fill: #fdbe00;
        }

        .pad-gray {
            fill: #858585;
        }

        .chip-gray {
            fill: #494949;
        }

        .led {
            filter: url(#innerglow);
        }

        #btn circle {
            fill: hsl(0, 0%, 15%);
            filter: drop-shadow(0.5px 0.75px 0.5px rgba(0, 0, 0, 0.3)) drop-shadow(0.5px 0.75px 0.2px rgba(0, 0, 0, 0.3));
        }

        #btn rect {
            filter: drop-shadow(0px 0px 0.5px rgba(0, 0, 0, 0.8)) drop-shadow(0px -1px 0px rgba(0, 0, 0, 0.3));
        }

        #board {
            filter: drop-shadow(1.5px 1.5px 2.5px rgba(0, 0, 0, 0.4));
        }

        #board-annotations {
            filter: drop-shadow(3px 3px 1.5px rgba(0, 0, 0, 0.4));
        }

        #esp32 rect {
            filter: drop-shadow(0px 0px 1px rgba(0, 0, 0, 0.5)) drop-shadow(0px -1px 0px rgba(0, 0, 0, 0.2));
        }

        .interactable {
            filter: drop-shadow(0.5px 1px 2px rgba(0, 0, 0, 0.4));
        }

        #info-text {
            font-size: 8px;
        }
    </style>
    <g id="info-text">
        <!-- <text x="20px" y="-65px">The ESP32 runs on 3.3V power and logic, <tspan>GPIO pins are not 5V safe!</tspan></text> -->
        <!-- <text x="20px" y="-50px">PWM is supported on every digital pin.</text> -->
        <!-- <text x="20px" y="-43px">UART, I2C, SPI, PWM etc. can be reassigned in the code.</text> -->
        <!-- <text x="20px" y="-35px">ADC#2 can&apos;t be read once WIFI has started.</text> -->
    </g>

    <g id="pinout">
        <g id="board">
            <path id="pcb" d="M231.369,93.137l0,200.81c0,6.02 -4.887,10.907 -10.906,10.907l-78.777,0c-6.02,0 -10.907,-4.887 -10.907,-10.907l-0,-200.81c-0,-6.019 4.887,-10.906 10.907,-10.906l78.777,-0c6.019,-0 10.906,4.887 10.906,10.906Zm-5.66,80.581c-1.867,0 -3.383,1.516 -3.383,3.384c-0,1.867 1.516,3.383 3.383,3.383c1.867,-0 3.383,-1.516 3.383,-3.383c0,-1.868 -1.516,-3.384 -3.383,-3.384Zm0,-11.108c-1.867,0 -3.383,1.516 -3.383,3.384c-0,1.867 1.516,3.383 3.383,3.383c1.867,0 3.383,-1.516 3.383,-3.383c0,-1.868 -1.516,-3.384 -3.383,-3.384Zm-85.611,125.426c-3.147,-0 -5.702,2.554 -5.702,5.701c0,3.147 2.555,5.701 5.702,5.701c3.146,0 5.701,-2.554 5.701,-5.701c-0,-3.147 -2.555,-5.701 -5.701,-5.701Zm85.611,-47.67c-1.867,-0 -3.383,1.516 -3.383,3.383c-0,1.868 1.516,3.384 3.383,3.384c1.867,-0 3.383,-1.516 3.383,-3.384c0,-1.867 -1.516,-3.383 -3.383,-3.383Zm-89.352,-33.48c-1.867,0 -3.383,1.516 -3.383,3.384c-0,1.867 1.516,3.383 3.383,3.383c1.868,0 3.384,-1.516 3.384,-3.383c-0,-1.868 -1.516,-3.384 -3.384,-3.384Zm0,11.115c-1.867,-0 -3.383,1.516 -3.383,3.383c-0,1.868 1.516,3.384 3.383,3.384c1.868,-0 3.384,-1.516 3.384,-3.384c-0,-1.867 -1.516,-3.383 -3.384,-3.383Zm0,11.114c-1.867,0 -3.383,1.517 -3.383,3.384c-0,1.867 1.516,3.383 3.383,3.383c1.868,0 3.384,-1.516 3.384,-3.383c-0,-1.867 -1.516,-3.384 -3.384,-3.384Zm0,-55.573c-1.867,0 -3.383,1.516 -3.383,3.384c-0,1.867 1.516,3.383 3.383,3.383c1.868,0 3.384,-1.516 3.384,-3.383c-0,-1.868 -1.516,-3.384 -3.384,-3.384Zm0,11.115c-1.867,-0 -3.383,1.516 -3.383,3.383c-0,1.868 1.516,3.384 3.383,3.384c1.868,-0 3.384,-1.516 3.384,-3.384c-0,-1.867 -1.516,-3.383 -3.384,-3.383Zm0,-66.688c-1.867,-0 -3.383,1.516 -3.383,3.383c-0,1.868 1.516,3.384 3.383,3.384c1.868,-0 3.384,-1.516 3.384,-3.384c-0,-1.867 -1.516,-3.383 -3.384,-3.383Zm0,11.115c-1.867,-0 -3.383,1.516 -3.383,3.383c-0,1.867 1.516,3.383 3.383,3.383c1.868,0 3.384,-1.516 3.384,-3.383c-0,-1.867 -1.516,-3.383 -3.384,-3.383Zm89.352,22.418c-1.867,0 -3.383,1.516 -3.383,3.384c-0,1.867 1.516,3.383 3.383,3.383c1.867,0 3.383,-1.516 3.383,-3.383c0,-1.868 -1.516,-3.384 -3.383,-3.384Zm0,55.54c-1.867,-0 -3.383,1.516 -3.383,3.383c-0,1.868 1.516,3.384 3.383,3.384c1.867,-0 3.383,-1.516 3.383,-3.384c0,-1.867 -1.516,-3.383 -3.383,-3.383Zm-2.974,80.994c-3.146,-0 -5.701,2.554 -5.701,5.701c0,3.147 2.555,5.701 5.701,5.701c3.147,0 5.702,-2.554 5.702,-5.701c-0,-3.147 -2.555,-5.701 -5.702,-5.701Zm2.974,-92.102c-1.867,-0 -3.383,1.516 -3.383,3.383c-0,1.868 1.516,3.384 3.383,3.384c1.867,-0 3.383,-1.516 3.383,-3.384c0,-1.867 -1.516,-3.383 -3.383,-3.383Zm0,55.54c-1.867,-0 -3.383,1.516 -3.383,3.383c-0,1.867 1.516,3.384 3.383,3.384c1.867,-0 3.383,-1.517 3.383,-3.384c0,-1.867 -1.516,-3.383 -3.383,-3.383Zm0,11.108c-1.867,-0 -3.383,1.516 -3.383,3.383c-0,1.867 1.516,3.383 3.383,3.383c1.867,0 3.383,-1.516 3.383,-3.383c0,-1.867 -1.516,-3.383 -3.383,-3.383Zm0,11.108c-1.867,-0 -3.383,1.516 -3.383,3.383c-0,1.867 1.516,3.383 3.383,3.383c1.867,0 3.383,-1.516 3.383,-3.383c0,-1.867 -1.516,-3.383 -3.383,-3.383Zm0,-55.54c-1.867,-0 -3.383,1.516 -3.383,3.383c-0,1.868 1.516,3.384 3.383,3.384c1.867,-0 3.383,-1.516 3.383,-3.384c0,-1.867 -1.516,-3.383 -3.383,-3.383Zm0,11.108c-1.867,-0 -3.383,1.516 -3.383,3.383c-0,1.868 1.516,3.384 3.383,3.384c1.867,-0 3.383,-1.516 3.383,-3.384c0,-1.867 -1.516,-3.383 -3.383,-3.383Zm0,-44.432c-1.867,0 -3.383,1.516 -3.383,3.383c-0,1.868 1.516,3.384 3.383,3.384c1.867,-0 3.383,-1.516 3.383,-3.384c0,-1.867 -1.516,-3.383 -3.383,-3.383Zm-83.691,-96.948c-3.147,-0 -5.702,2.554 -5.702,5.701c0,3.147 2.555,5.701 5.702,5.701c3.146,0 5.701,-2.554 5.701,-5.701c-0,-3.147 -2.555,-5.701 -5.701,-5.701Zm-5.661,107.894c-1.867,-0 -3.383,1.516 -3.383,3.383c-0,1.867 1.516,3.383 3.383,3.383c1.868,0 3.384,-1.516 3.384,-3.383c-0,-1.867 -1.516,-3.383 -3.384,-3.383Zm0,-88.918c-1.867,0 -3.383,1.516 -3.383,3.384c-0,1.867 1.516,3.383 3.383,3.383c1.868,0 3.384,-1.516 3.384,-3.383c-0,-1.868 -1.516,-3.384 -3.384,-3.384Zm0,33.344c-1.867,0 -3.383,1.516 -3.383,3.384c-0,1.867 1.516,3.383 3.383,3.383c1.868,0 3.384,-1.516 3.384,-3.383c-0,-1.868 -1.516,-3.384 -3.384,-3.384Zm0,11.115c-1.867,-0 -3.383,1.516 -3.383,3.383c-0,1.868 1.516,3.384 3.383,3.384c1.868,-0 3.384,-1.516 3.384,-3.384c-0,-1.867 -1.516,-3.383 -3.384,-3.383Zm0,11.115c-1.867,-0 -3.383,1.516 -3.383,3.383c-0,1.867 1.516,3.383 3.383,3.383c1.868,0 3.384,-1.516 3.384,-3.383c-0,-1.867 -1.516,-3.383 -3.384,-3.383Zm83.738,-74.55c-3.146,-0 -5.701,2.554 -5.701,5.701c0,3.147 2.555,5.701 5.701,5.701c3.147,0 5.702,-2.554 5.702,-5.701c-0,-3.147 -2.555,-5.701 -5.702,-5.701Zm-83.738,152.352c-1.867,0 -3.383,1.516 -3.383,3.384c-0,1.867 1.516,3.383 3.383,3.383c1.868,0 3.384,-1.516 3.384,-3.383c-0,-1.868 -1.516,-3.384 -3.384,-3.384Zm0,11.115c-1.867,-0 -3.383,1.516 -3.383,3.383c-0,1.868 1.516,3.384 3.383,3.384c1.868,-0 3.384,-1.516 3.384,-3.384c-0,-1.867 -1.516,-3.383 -3.384,-3.383Zm0,11.114c-1.867,0 -3.383,1.517 -3.383,3.384c-0,1.867 1.516,3.383 3.383,3.383c1.868,0 3.384,-1.516 3.384,-3.383c-0,-1.867 -1.516,-3.384 -3.384,-3.384Zm0,11.115c-1.867,0 -3.383,1.516 -3.383,3.384c-0,1.867 1.516,3.383 3.383,3.383c1.868,-0 3.384,-1.516 3.384,-3.383c-0,-1.868 -1.516,-3.384 -3.384,-3.384Z" style="fill:#333;stroke:#000;stroke-width:0.3px;" />
            <g opacity="0.5">
                <g>
                    <rect x="150.288" y="147.824" width="17.81" height="17.81" class="chip-gray" />
                    <path d="M168.098,147.824l0,17.809l-17.81,0l0,-17.809l17.81,-0Zm-0.25,0.25c0,-0 -17.31,-0 -17.31,-0c0,-0 0,17.309 0,17.309c0,0 17.31,0 17.31,0l0,-17.309Z" style="fill-opacity:0;" />
                    <circle cx="165.072" cy="150.85" r="1.106" class="pad-gray" />
                    <g>
                        <rect x="153.36" y="145.904" width="1.2" height="1.92" class="pad-gray" />
                        <rect x="155.504" y="145.904" width="1.2" height="1.92" class="pad-gray" />
                        <rect x="157.648" y="145.904" width="1.2" height="1.92" class="pad-gray" />
                        <rect x="159.792" y="145.904" width="1.2" height="1.92" class="pad-gray" />
                        <rect x="161.936" y="145.904" width="1.2" height="1.92" class="pad-gray" />
                        <rect x="164.08" y="145.904" width="1.2" height="1.92" class="pad-gray" />
                    </g>
                    <g>
                        <path d="M170.018,151.72l0,-1.2l-1.92,0l0,1.2l1.92,0Z" class="pad-gray" />
                        <path d="M170.018,153.864l0,-1.2l-1.92,0l0,1.2l1.92,0Z" class="pad-gray" />
                        <path d="M170.018,156.008l0,-1.2l-1.92,0l0,1.2l1.92,0Z" class="pad-gray" />
                        <path d="M170.018,158.152l0,-1.2l-1.92,-0l0,1.2l1.92,-0Z" class="pad-gray" />
                        <path d="M170.018,160.296l0,-1.2l-1.92,-0l0,1.2l1.92,-0Z" class="pad-gray" />
                        <path d="M170.018,162.44l0,-1.2l-1.92,-0l0,1.2l1.92,-0Z" class="pad-gray" />
                    </g>
                    <g>
                        <path d="M150.318,151.72l-0,-1.2l-1.92,0l-0,1.2l1.92,0Z" class="pad-gray" />
                        <path d="M150.318,153.864l-0,-1.2l-1.92,0l-0,1.2l1.92,0Z" class="pad-gray" />
                        <path d="M150.318,156.008l-0,-1.2l-1.92,0l-0,1.2l1.92,0Z" class="pad-gray" />
                        <path d="M150.318,158.152l-0,-1.2l-1.92,-0l-0,1.2l1.92,-0Z" class="pad-gray" />
                        <path d="M150.318,160.296l-0,-1.2l-1.92,-0l-0,1.2l1.92,-0Z" class="pad-gray" />
                        <path d="M150.318,162.44l-0,-1.2l-1.92,-0l-0,1.2l1.92,-0Z" class="pad-gray" />
                    </g>
                    <g>
                        <rect x="153.36" y="165.633" width="1.2" height="1.92" class="pad-gray" />
                        <rect x="155.504" y="165.633" width="1.2" height="1.92" class="pad-gray" />
                        <rect x="157.648" y="165.633" width="1.2" height="1.92" class="pad-gray" />
                        <rect x="159.792" y="165.633" width="1.2" height="1.92" class="pad-gray" />
                        <rect x="161.936" y="165.633" width="1.2" height="1.92" class="pad-gray" />
                        <rect x="164.08" y="165.633" width="1.2" height="1.92" class="pad-gray" />
                    </g>
                </g>
                <g id="cap">
                    <path d="M145.903,138.446l-0,4.196l2.924,0l0,-4.196l-2.924,-0Z" class="pad-gray" />
                    <path d="M154.383,138.446l0,4.196l2.925,0l-0,-4.196l-2.925,-0Z" class="pad-gray" />
                    <path d="M148.608,138.865l-0,3.357l1.243,0l-0,-3.357l-1.243,0Z" style="fill:#b9b9b9;" />
                    <path d="M153.36,138.865l-0,3.357l1.243,0l-0,-3.357l-1.243,0Z" style="fill:#b9b9b9;" />
                    <path d="M149.851,138.865l-0,3.357l3.509,0l-0,-3.357l-3.509,0Z" style="fill:#c69347;" />
                </g>
                <g id="cap1">
                    <path d="M158.356,110.423l-0,4.196l2.924,0l0,-4.196l-2.924,0Z" class="pad-gray" />
                    <path d="M166.836,110.423l0,4.196l2.925,0l-0,-4.196l-2.925,0Z" class="pad-gray" />
                    <path d="M161.061,110.843l-0,3.357l1.243,-0l-0,-3.357l-1.243,-0Z" style="fill:#b9b9b9;" />
                    <path d="M165.813,110.843l-0,3.357l1.243,-0l-0,-3.357l-1.243,-0Z" style="fill:#b9b9b9;" />
                    <path d="M162.304,110.843l-0,3.357l3.509,-0l-0,-3.357l-3.509,-0Z" style="fill:#c69347;" />
                </g>
                <g id="rstr">
                    <rect x="192.32" y="182.946" width="4.39" height="4.974" class="pad-gray" />
                    <rect x="192.32" y="175.92" width="4.39" height="4.974" class="pad-gray" />
                    <g>
                        <rect x="192.817" y="183.906" width="3.395" height="1.174" style="fill:#eaeaea;" />
                        <rect x="192.922" y="179.934" width="3.187" height="3.971" class="chip-gray" />
                        <rect x="192.817" y="178.761" width="3.395" height="1.174" style="fill:#eaeaea;" />
                    </g>
                </g>
                <g id="rstr1">
                    <rect x="197.898" y="182.946" width="4.524" height="4.974" class="pad-gray" />
                    <rect x="197.898" y="175.92" width="4.524" height="4.974" class="pad-gray" />
                    <g>
                        <rect x="198.411" y="183.906" width="3.499" height="1.174" style="fill:#eaeaea;" />
                        <rect x="198.518" y="179.934" width="3.283" height="3.971" class="chip-gray" />
                        <rect x="198.411" y="178.761" width="3.499" height="1.174" style="fill:#eaeaea;" />
                    </g>
                </g>
                <g id="rstr2">
                    <rect x="203.383" y="182.946" width="4.524" height="4.974" class="pad-gray" />
                    <rect x="203.383" y="175.92" width="4.524" height="4.974" class="pad-gray" />
                    <g>
                        <rect x="203.895" y="183.906" width="3.499" height="1.174" style="fill:#eaeaea;" />
                        <rect x="204.003" y="179.934" width="3.283" height="3.971" class="chip-gray" />
                        <rect x="203.895" y="178.761" width="3.499" height="1.174" style="fill:#eaeaea;" />
                    </g>
                </g>
                <g id="rstr3">
                    <rect x="204.587" y="167.015" width="4.524" height="4.974" class="pad-gray" />
                    <rect x="204.587" y="159.989" width="4.524" height="4.974" class="pad-gray" />
                    <g>
                        <rect x="205.1" y="167.974" width="3.499" height="1.174" style="fill:#eaeaea;" />
                        <rect x="205.207" y="164.003" width="3.283" height="3.971" class="chip-gray" />
                        <rect x="205.1" y="162.83" width="3.499" height="1.174" style="fill:#eaeaea;" />
                    </g>
                </g>
                <g id="rstr4">
                    <rect x="188.633" y="116.868" width="4.524" height="4.974" class="pad-gray" />
                    <rect x="188.633" y="109.842" width="4.524" height="4.974" class="pad-gray" />
                    <g>
                        <rect x="189.146" y="117.828" width="3.499" height="1.174" style="fill:#eaeaea;" />
                        <rect x="189.254" y="113.857" width="3.283" height="3.971" class="chip-gray" />
                        <rect x="189.146" y="112.683" width="3.499" height="1.174" style="fill:#eaeaea;" />
                    </g>
                </g>
                <g id="rstr5">
                    <rect x="147.242" y="109.493" width="4.524" height="4.974" class="pad-gray" />
                    <rect x="147.242" y="102.467" width="4.524" height="4.974" class="pad-gray" />
                    <g>
                        <rect x="147.754" y="110.453" width="3.499" height="1.174" style="fill:#eaeaea;" />
                        <rect x="147.862" y="106.482" width="3.283" height="3.971" class="chip-gray" />
                        <rect x="147.754" y="105.308" width="3.499" height="1.174" style="fill:#eaeaea;" />
                    </g>
                </g>
                <g id="rstr6">
                    <path d="M222.306,109.384l-0,-4.524l-4.974,-0l-0,4.524l4.974,-0Z" style="fill:#858585;" />
                    <path d="M229.332,109.384l-0,-4.524l-4.974,-0l-0,4.524l4.974,-0Z" style="fill:#858585;" />
                    <g>
                        <path d="M221.346,108.871l0,-3.499l-1.173,0l-0,3.499l1.173,0Z" style="fill:#eaeaea;" />
                        <path d="M225.317,108.763l0,-3.283l-3.971,0l0,3.283l3.971,0Z" style="fill:#494949;" />
                        <path d="M226.491,108.871l-0,-3.499l-1.174,0l0,3.499l1.174,0Z" style="fill:#eaeaea;" />
                    </g>
                </g>

                <g id="cap2">
                    <path d="M203.129,150.055l-0,6.319l3.572,0l0,-6.319l-3.572,0Z" class="pad-gray" />
                    <path d="M213.489,150.055l0,6.319l3.573,0l0,-6.319l-3.573,0Z" class="pad-gray" />
                    <path d="M206.434,150.687l-0,5.056l1.518,-0l-0,-5.056l-1.518,0Z" style="fill:#b9b9b9;" />
                    <path d="M212.239,150.687l0,5.056l1.518,-0l0,-5.056l-1.518,0Z" style="fill:#b9b9b9;" />
                    <path d="M207.952,150.687l-0,5.056l4.287,-0l0,-5.056l-4.287,0Z" style="fill:#c69347;" />
                </g>
                <g id="cap3">
                    <path d="M180.22,142.241l-0,6.319l3.572,-0l0,-6.319l-3.572,-0Z" class="pad-gray" />
                    <path d="M190.58,142.241l0,6.319l3.573,-0l-0,-6.319l-3.573,-0Z" class="pad-gray" />
                    <path d="M183.524,142.873l0,5.055l1.519,0l-0,-5.055l-1.519,-0Z" style="fill:#b9b9b9;" />
                    <path d="M189.33,142.873l-0,5.055l1.518,0l0,-5.055l-1.518,-0Z" style="fill:#b9b9b9;" />
                    <path d="M185.043,142.873l-0,5.055l4.287,0l-0,-5.055l-4.287,-0Z" style="fill:#c69347;" />
                </g>
                <g id="cap4">
                    <path d="M145.117,130.527l0,6.319l3.573,-0l-0,-6.319l-3.573,-0Z" class="pad-gray" />
                    <path d="M155.478,130.527l-0,6.319l3.573,-0l-0,-6.319l-3.573,-0Z" class="pad-gray" />
                    <path d="M148.422,131.159l-0,5.055l1.518,0l0,-5.055l-1.518,-0Z" style="fill:#b9b9b9;" />
                    <path d="M154.227,131.159l0,5.055l1.519,0l-0,-5.055l-1.519,-0Z" style="fill:#b9b9b9;" />
                    <path d="M149.94,131.159l0,5.055l4.287,0l0,-5.055l-4.287,-0Z" style="fill:#c69347;" />
                </g>
                <g id="cap5">
                    <rect x="210.331" y="158.387" width="6.319" height="3.573" class="pad-gray" />
                    <rect x="210.331" y="168.747" width="6.319" height="3.573" class="pad-gray" />
                    <rect x="210.963" y="161.691" width="5.055" height="1.518" style="fill:#b9b9b9;" />
                    <rect x="210.963" y="167.497" width="5.055" height="1.518" style="fill:#b9b9b9;" />
                    <rect x="210.963" y="163.21" width="5.055" height="4.287" style="fill:#c69347;" />
                </g>
                <g id="cap6">
                    <rect x="209.249" y="173.987" width="6.319" height="3.573" class="pad-gray" />
                    <rect x="209.249" y="184.347" width="6.319" height="3.573" class="pad-gray" />
                    <rect x="209.881" y="177.291" width="5.055" height="1.518" style="fill:#b9b9b9;" />
                    <rect x="209.881" y="183.097" width="5.055" height="1.518" style="fill:#b9b9b9;" />
                    <rect x="209.881" y="178.81" width="5.055" height="4.287" style="fill:#c69347;" />
                </g>
                <g id="ic3">
                    <g>
                        <path d="M175.125,152.407l0,9.148l3.326,0l-0,-9.148l-3.326,0Z" class="pad-gray" />
                        <path d="M175.823,153.114l0,8.441l1.931,0l0,-8.441l-1.931,-0Z" style="fill:#b9b9b9;" />
                    </g>
                    <g>
                        <path d="M179.332,152.407l-0,9.148l3.325,0l0,-9.148l-3.325,0Z" class="pad-gray" />
                        <path d="M180.029,153.114l0,8.441l1.931,0l0,-8.441l-1.931,-0Z" style="fill:#b9b9b9;" />
                    </g>
                    <g>
                        <path d="M183.538,152.407l0,9.148l3.326,0l-0,-9.148l-3.326,0Z" class="pad-gray" />
                        <path d="M184.236,153.114l-0,8.441l1.931,0l-0,-8.441l-1.931,-0Z" style="fill:#b9b9b9;" />
                    </g>
                    <g>
                        <path d="M183.538,160.64l0,9.148l3.326,-0l-0,-9.148l-3.326,-0Z" class="pad-gray" />
                        <path d="M184.236,160.64l-0,8.441l1.931,0l-0,-8.441l-1.931,-0Z" style="fill:#b9b9b9;" />
                    </g>
                    <g>
                        <path d="M175.125,160.64l0,9.148l3.326,-0l-0,-9.148l-3.326,-0Z" class="pad-gray" />
                        <path d="M175.823,160.64l0,8.441l1.931,0l0,-8.441l-1.931,-0Z" style="fill:#b9b9b9;" />
                    </g>
                    <path d="M174.402,156.913l0,7.985l13.608,0l0,-7.985l-13.608,0Z" class="chip-gray" />
                </g>
                <g id="ic31">
                    <g>
                        <path d="M202.044,169.788l0,-9.148l-3.325,-0l-0,9.148l3.325,-0Z" class="pad-gray" />
                        <path d="M201.346,169.081l0,-8.441l-1.931,-0l0,8.441l1.931,0Z" style="fill:#b9b9b9;" />
                    </g>
                    <g>
                        <path d="M197.838,169.788l-0,-9.148l-3.326,-0l0,9.148l3.326,-0Z" class="pad-gray" />
                        <path d="M197.14,169.081l0,-8.441l-1.93,-0l-0,8.441l1.93,0Z" style="fill:#b9b9b9;" />
                    </g>
                    <g>
                        <path d="M193.631,169.788l0,-9.148l-3.325,-0l-0,9.148l3.325,-0Z" class="pad-gray" />
                        <path d="M192.934,169.081l0,-8.441l-1.931,-0l0,8.441l1.931,0Z" style="fill:#b9b9b9;" />
                    </g>
                    <g>
                        <path d="M193.631,161.555l0,-9.148l-3.325,0l-0,9.148l3.325,0Z" class="pad-gray" />
                        <path d="M192.934,161.555l0,-8.441l-1.931,-0l0,8.441l1.931,0Z" style="fill:#b9b9b9;" />
                    </g>
                    <g>
                        <path d="M202.044,161.555l0,-9.148l-3.325,0l-0,9.148l3.325,0Z" class="pad-gray" />
                        <path d="M201.346,161.555l0,-8.441l-1.931,-0l0,8.441l1.931,0Z" style="fill:#b9b9b9;" />
                    </g>
                    <path d="M202.767,165.282l0,-7.985l-13.608,-0l0,7.985l13.608,-0Z" class="chip-gray" />
                </g>
                <g>
                    <g>
                        <rect x="165.413" y="174.7" width="11.093" height="1.514" class="pad-gray" />
                        <rect x="165.413" y="178.697" width="11.093" height="1.514" class="pad-gray" />
                        <rect x="165.413" y="182.438" width="11.093" height="1.514" class="pad-gray" />
                        <rect x="165.413" y="186.326" width="11.093" height="1.514" class="pad-gray" />
                    </g>
                    <rect x="167.592" y="173.93" width="6.734" height="14.679" class="chip-gray" />
                    <path d="M174.327,173.93l-0,14.68l-6.735,-0l0,-14.68l6.735,0Zm-0.25,0.25c-0,0 -6.235,0 -6.235,0l0,14.18c0,-0 6.235,-0 6.235,-0l-0,-14.18Z" style="fill-opacity:0;" />
                </g>
                <g>
                    <g>
                        <rect x="181.28" y="113.981" width="6.005" height="5.625" class="pad-gray" />
                        <rect x="181.28" y="130.569" width="6.005" height="5.625" class="pad-gray" />
                    </g>
                    <path d="M187.232,131.033l0,-11.891l-5.899,-0l-0,11.891l5.899,0Z" class="chip-gray" />
                    <path d="M187.232,131.033l-5.899,0l-0,-11.891l5.899,-0l0,11.891Zm-0.25,-0.25l0,-11.391c0,-0 -5.399,-0 -5.399,-0l-0,11.391l5.399,0Z" style="fill-opacity:0;" />
                </g>
                <g>
                    <rect x="169.796" y="133.871" width="5.326" height="2.609" class="pad-gray" />
                    <rect x="169.796" y="141.864" width="5.326" height="2.609" class="pad-gray" />
                    <rect x="177.942" y="137.868" width="5.326" height="2.609" class="pad-gray" />
                    <path d="M179.55,145.118l0,-11.892l-5.899,0l-0,11.892l5.899,-0Z" class="chip-gray" />
                    <path d="M179.55,145.118l-5.899,-0l-0,-11.892l5.899,0l0,11.892Zm-0.25,-0.25l0,-11.392c0,0 -5.399,0 -5.399,0l-0,11.392l5.399,-0Z" style="fill-opacity:0;" />
                </g>
                <g>
                    <rect x="150.847" y="175.535" width="5.326" height="2.609" class="pad-gray" />
                    <rect x="150.847" y="183.528" width="5.326" height="2.609" class="pad-gray" />
                    <rect x="158.993" y="179.532" width="5.326" height="2.609" class="pad-gray" />
                    <path d="M160.602,186.782l-0,-11.892l-5.9,0l0,11.892l5.9,-0Z" class="chip-gray" />
                    <path d="M160.602,186.782l-5.9,-0l0,-11.892l5.9,0l-0,11.892Zm-0.25,-0.25l-0,-11.392c-0,0 -5.4,0 -5.4,0l0,11.392l5.4,-0Z" style="fill-opacity:0;" />
                </g>
                <g>
                    <rect x="185.886" y="184.968" width="5.326" height="2.609" class="pad-gray" />
                    <rect x="185.886" y="176.975" width="5.326" height="2.609" class="pad-gray" />
                    <rect x="177.74" y="180.972" width="5.326" height="2.609" class="pad-gray" />
                    <path d="M181.457,176.331l-0,11.891l5.9,-0l-0,-11.891l-5.9,-0Z" class="chip-gray" />
                    <path d="M181.457,176.331l5.9,-0l-0,11.891l-5.9,-0l-0,-11.891Zm0.25,0.25l-0,11.391c-0,-0 5.4,-0 5.4,-0l-0,-11.391l-5.4,-0Z" style="fill-opacity:0;" />
                </g>
            </g>
            <g>
                <path d="M220.099,85.882c4.25,-0 7.701,3.45 7.701,7.701c-0,4.25 -3.451,7.701 -7.701,7.701c-4.251,0 -7.702,-3.451 -7.702,-7.701c0,-4.251 3.451,-7.701 7.702,-7.701Zm-0,2c-3.147,-0 -5.702,2.554 -5.702,5.701c0,3.147 2.555,5.701 5.702,5.701c3.146,0 5.701,-2.554 5.701,-5.701c-0,-3.147 -2.555,-5.701 -5.701,-5.701Z" class="connector-gold" />
                <path d="M220.099,83.917c5.334,0 9.665,4.331 9.665,9.666c-0,5.334 -4.331,9.665 -9.665,9.665c-5.335,0 -9.666,-4.331 -9.666,-9.665c0,-5.335 4.331,-9.666 9.666,-9.666Zm-0,1.5c-4.507,0 -8.166,3.659 -8.166,8.166c0,4.506 3.659,8.165 8.166,8.165c4.506,0 8.165,-3.659 8.165,-8.165c-0,-4.507 -3.659,-8.166 -8.165,-8.166Z" style="fill:#fff;" />
            </g>
            <g>
                <path d="M142,85.882c4.251,-0 7.702,3.45 7.702,7.701c-0,4.25 -3.451,7.701 -7.702,7.701c-4.25,0 -7.701,-3.451 -7.701,-7.701c0,-4.251 3.451,-7.701 7.701,-7.701Zm0,2c-3.146,-0 -5.701,2.554 -5.701,5.701c0,3.147 2.555,5.701 5.701,5.701c3.147,0 5.702,-2.554 5.702,-5.701c-0,-3.147 -2.555,-5.701 -5.702,-5.701Z" class="connector-gold" />
                <path d="M142,83.917c5.335,0 9.666,4.331 9.666,9.666c-0,5.334 -4.331,9.665 -9.666,9.665c-5.334,0 -9.665,-4.331 -9.665,-9.665c-0,-5.335 4.331,-9.666 9.665,-9.666Zm0,1.5c-4.506,0 -8.165,3.659 -8.165,8.166c-0,4.506 3.659,8.165 8.165,8.165c4.507,0 8.166,-3.659 8.166,-8.165c-0,-4.507 -3.659,-8.166 -8.166,-8.166Z" style="fill:#fff;" />
            </g>
            <g id="esp32">
                <rect x="141.135" y="192.719" width="78.791" height="111.655" class="chip-gray" />
                <!-- <path d="M219.926,192.719l-0,111.655l-78.791,0l0,-111.655l78.791,0Zm-0.35,0.35l-78.091,0l0,110.955l78.091,0l-0,-110.955Z" /> -->
                <rect x="145.536" y="196.688" width="70.545" height="79.953" style="fill:#aaa;fill-opacity:0.48;" />
                <!-- <path d="M216.08,196.688l0,79.953l-70.544,-0l-0,-79.953l70.544,0Zm-0.35,0.35l-69.844,0l-0,79.253l69.844,-0l0,-79.253Z" /> -->
            </g>
            <g id="LED" class="interactable">
                <rect x="203.348" y="87.561" width="5.885" height="14.647" class="pad-gray" />
                <path d="M205.21,90.681c0,0.596 0.484,1.08 1.08,1.08c0.596,-0 1.08,-0.484 1.08,-1.08l1.863,-0l-0,8.407l-1.863,-0c0,-0.596 -0.484,-1.08 -1.08,-1.08c-0.596,-0 -1.08,0.484 -1.08,1.08l-1.862,-0l-0,-8.407l1.862,-0Z" style="fill:#b7b7b7;" />
                <rect class="led" x="203.163" y="91.757" width="6.256" height="6.256" style="fill:#fff7c4;" />
            </g>
            <g id="btn" class="interactable">
                <g>
                    <path d="M165.272,120.888l3.789,-0l0,-4.258l-3.789,0l-0,4.258Z" class="pad-gray" />
                    <path d="M165.272,119.752l2.678,0l0,-1.986l-2.678,-0l-0,1.986Z" style="fill:#b9b9b9;" />
                </g>
                <g>
                    <path d="M165.272,128.159l3.789,-0l0,-4.258l-3.789,0l-0,4.258Z" class="pad-gray" />
                    <path d="M165.272,127.023l2.678,0l0,-1.986l-2.678,0l-0,1.986Z" style="fill:#b9b9b9;" />
                </g>
                <g>
                    <path d="M151.074,123.901l-3.789,0l-0,4.258l3.789,-0l0,-4.258Z" class="pad-gray" />
                    <path d="M151.074,125.037l-2.678,0l-0,1.986l2.678,0l0,-1.986Z" style="fill:#b9b9b9;" />
                </g>
                <g>
                    <path d="M151.074,116.63l-3.789,0l-0,4.258l3.789,-0l0,-4.258Z" class="pad-gray" />
                    <path d="M151.074,117.766l-2.678,-0l-0,1.986l2.678,0l0,-1.986Z" style="fill:#b9b9b9;" />
                </g>
                <rect x="151.074" y="115.943" width="14.198" height="12.879" style="fill:#b7b7b7;" />
                <path d="M162.863,122.383c0,2.588 -2.101,4.69 -4.69,4.69c-2.589,0 -4.691,-2.102 -4.691,-4.69c0,-2.589 2.102,-4.691 4.691,-4.691c2.589,0 4.69,2.102 4.69,4.691Z" />
                <circle cx="158" cy="122.5" r="4.5" />
            </g>
            <g id="LED2" class="interactable">
                <rect x="152.126" y="85.135" width="5.885" height="14.647" class="pad-gray" />
                <path d="M153.989,88.255c0,0.596 0.484,1.08 1.08,1.08c0.596,-0 1.08,-0.484 1.08,-1.08l1.863,-0l-0,8.407l-1.863,-0c0,-0.596 -0.484,-1.08 -1.08,-1.08c-0.596,-0 -1.08,0.484 -1.08,1.08l-1.863,-0l0,-8.407l1.863,-0Z" style="fill:#b7b7b7;" />
                <rect class="led" x="151.941" y="89.33" width="6.256" height="6.256" style="fill:#fff7c4;" />
            </g>
            <g id="usb" class="interactable">
                <g>
                    <rect x="173.915" y="106.109" width="1.921" height="2.36" style="fill:#939393;" />
                    <rect x="176.758" y="106.109" width="1.921" height="2.36" style="fill:#939393;" />
                    <rect x="179.601" y="106.109" width="1.921" height="2.36" style="fill:#939393;" />
                    <rect x="182.444" y="106.109" width="1.921" height="2.36" style="fill:#939393;" />
                    <rect x="185.287" y="106.109" width="1.921" height="2.36" style="fill:#939393;" />
                </g>
                <path style="fill:url(#gradient-usb);" d="M196.763,81.252l0.817,0l-0.72,3.184l-0,21.632l-32.597,0l0,-21.632l-0.72,-3.184l0.817,0l1.2,2.821l1.042,0.047l0.857,-2.868l26.205,0l0.857,2.868l1.042,-0.047l1.2,-2.821Zm-4.196,7.654l-3.007,0c-0.331,0 -0.599,0.269 -0.599,0.599l-0,1.198c-0,0.33 0.676,0.599 0.676,0.599l-0,3.061c-0,0.394 0.319,0.714 0.713,0.714l1.426,-0c0.394,-0 0.714,-0.32 0.714,-0.714l-0,-3.061c-0,-0 0.675,-0.269 0.675,-0.599l0,-1.198c0,-0.33 -0.268,-0.599 -0.598,-0.599Zm-21.004,0l-3.007,0c-0.33,0 -0.598,0.269 -0.598,0.599l-0,1.198c-0,0.33 0.675,0.599 0.675,0.599l0,3.061c0,0.394 0.32,0.714 0.714,0.714l1.426,-0c0.394,-0 0.713,-0.32 0.713,-0.714l0,-3.061c0,-0 0.676,-0.269 0.676,-0.599l0,-1.198c0,-0.33 -0.268,-0.599 -0.599,-0.599Z" />
            </g>
            <g id="battery-socket" class="interactable">
                <g>
                    <g>
                        <rect x="189.561" y="122.958" width="15.234" height="5.207" class="pad-gray" />
                        <rect x="194.977" y="123.883" width="9.817" height="3.357" style="fill:#b9b9b9;" />
                    </g>
                    <g>
                        <rect x="189.561" y="131.189" width="15.234" height="5.207" class="pad-gray" />
                        <rect x="194.977" y="132.115" width="9.817" height="3.357" style="fill:#b9b9b9;" />
                    </g>
                    <rect x="212.746" y="111.152" width="14.787" height="5.207" class="pad-gray" />
                    <rect x="212.746" y="142.862" width="14.787" height="5.207" class="pad-gray" />
                </g>
                <path d="M230.649,144.599l0,-29.977l-2.587,0l-0,-2.096l-33.25,0l-0,3.728l7.649,-0l-0,26.713l-7.649,0l-0,3.728l33.25,0l-0,-2.096l2.587,0Z" class="chip-gray" />
                <path d="M221.996,137.216l-19.147,0l-0,4.889l19.147,-0l0,-4.889Zm0,-19.939l-19.147,-0l-0,4.889l19.147,-0l0,-4.889Z" style="fill-opacity:0.6; fill:#222;" filter="url(#insetshadow)" />
                <rect x="227.239" y="138.072" width="3.41" height="3.094" style="fill-opacity:0.35;" />
                <path d="M230.649,144.599l0,-3.433l-3.41,0l-0,-3.094l3.41,-0l0,-23.45l-2.587,0l-0,-2.096l-33.25,0l-0,3.728l7.649,-0l-0,26.713l-7.649,0l-0,3.728l33.25,0l-0,-2.096l2.587,0Zm-8.653,-7.383l-19.147,0l-0,4.889l19.147,-0l0,-4.889Zm0,-19.939l-19.147,-0l-0,4.889l19.147,-0l0,-4.889Z" class="chip-gray" />
            </g>
            <g id="pins">
                <path d="M136.357,106.854c1.868,0 3.384,1.516 3.384,3.384c-0,1.867 -1.516,3.383 -3.384,3.383c-1.867,0 -3.383,-1.516 -3.383,-3.383c-0,-1.868 1.516,-3.384 3.383,-3.384Zm0,1.1c-1.26,0 -2.283,1.023 -2.283,2.284c-0,1.26 1.023,2.283 2.283,2.283c1.26,0 2.284,-1.023 2.284,-2.283c-0,-1.261 -1.024,-2.284 -2.284,-2.284Z" class="connector-gold" />
                <path d="M136.357,117.969c1.868,-0 3.384,1.516 3.384,3.383c-0,1.868 -1.516,3.384 -3.384,3.384c-1.867,-0 -3.383,-1.516 -3.383,-3.384c-0,-1.867 1.516,-3.383 3.383,-3.383Zm0,1.1c-1.26,-0 -2.283,1.023 -2.283,2.283c-0,1.261 1.023,2.284 2.283,2.284c1.26,-0 2.284,-1.023 2.284,-2.284c-0,-1.26 -1.024,-2.283 -2.284,-2.283Z" class="connector-gold" />
                <path d="M136.357,129.084c1.868,-0 3.384,1.516 3.384,3.383c-0,1.867 -1.516,3.383 -3.384,3.383c-1.867,0 -3.383,-1.516 -3.383,-3.383c-0,-1.867 1.516,-3.383 3.383,-3.383Zm0,1.1c-1.26,-0 -2.283,1.023 -2.283,2.283c-0,1.26 1.023,2.283 2.283,2.283c1.26,0 2.284,-1.023 2.284,-2.283c-0,-1.26 -1.024,-2.283 -2.284,-2.283Z" class="connector-gold" />
                <path d="M136.357,140.198c1.868,0 3.384,1.516 3.384,3.384c-0,1.867 -1.516,3.383 -3.384,3.383c-1.867,0 -3.383,-1.516 -3.383,-3.383c-0,-1.868 1.516,-3.384 3.383,-3.384Zm0,1.1c-1.26,0 -2.283,1.023 -2.283,2.284c-0,1.26 1.023,2.283 2.283,2.283c1.26,0 2.284,-1.023 2.284,-2.283c-0,-1.261 -1.024,-2.284 -2.284,-2.284Z" class="connector-gold" />
                <path d="M136.357,151.313c1.868,-0 3.384,1.516 3.384,3.383c-0,1.868 -1.516,3.384 -3.384,3.384c-1.867,-0 -3.383,-1.516 -3.383,-3.384c-0,-1.867 1.516,-3.383 3.383,-3.383Zm0,1.1c-1.26,-0 -2.283,1.023 -2.283,2.283c-0,1.261 1.023,2.284 2.283,2.284c1.26,-0 2.284,-1.023 2.284,-2.284c-0,-1.26 -1.024,-2.283 -2.284,-2.283Z" class="connector-gold" />
                <path d="M136.357,162.428c1.868,-0 3.384,1.516 3.384,3.383c-0,1.867 -1.516,3.383 -3.384,3.383c-1.867,0 -3.383,-1.516 -3.383,-3.383c-0,-1.867 1.516,-3.383 3.383,-3.383Zm0,1.1c-1.26,-0 -2.283,1.023 -2.283,2.283c-0,1.26 1.023,2.283 2.283,2.283c1.26,0 2.284,-1.023 2.284,-2.283c-0,-1.26 -1.024,-2.283 -2.284,-2.283Z" class="connector-gold" />
                <path d="M136.357,173.542c1.868,0 3.384,1.516 3.384,3.384c-0,1.867 -1.516,3.383 -3.384,3.383c-1.867,0 -3.383,-1.516 -3.383,-3.383c-0,-1.868 1.516,-3.384 3.383,-3.384Zm0,1.1c-1.26,0 -2.283,1.023 -2.283,2.284c-0,1.26 1.023,2.283 2.283,2.283c1.26,0 2.284,-1.023 2.284,-2.283c-0,-1.261 -1.024,-2.284 -2.284,-2.284Z" class="connector-gold" />
                <path d="M136.357,184.657c1.868,-0 3.384,1.516 3.384,3.383c-0,1.868 -1.516,3.384 -3.384,3.384c-1.867,-0 -3.383,-1.516 -3.383,-3.384c-0,-1.867 1.516,-3.383 3.383,-3.383Zm0,1.1c-1.26,-0 -2.283,1.023 -2.283,2.283c-0,1.261 1.023,2.284 2.283,2.284c1.26,-0 2.284,-1.023 2.284,-2.284c-0,-1.26 -1.024,-2.283 -2.284,-2.283Z" class="connector-gold" />
                <path d="M136.357,195.772c1.868,-0 3.384,1.516 3.384,3.383c-0,1.867 -1.516,3.383 -3.384,3.383c-1.867,0 -3.383,-1.516 -3.383,-3.383c-0,-1.867 1.516,-3.383 3.383,-3.383Zm0,1.1c-1.26,-0 -2.283,1.023 -2.283,2.283c-0,1.26 1.023,2.283 2.283,2.283c1.26,0 2.284,-1.023 2.284,-2.283c-0,-1.26 -1.024,-2.283 -2.284,-2.283Z" class="connector-gold" />
                <path d="M136.357,206.886c1.868,0 3.384,1.516 3.384,3.384c-0,1.867 -1.516,3.383 -3.384,3.383c-1.867,0 -3.383,-1.516 -3.383,-3.383c-0,-1.868 1.516,-3.384 3.383,-3.384Zm0,1.1c-1.26,0 -2.283,1.023 -2.283,2.284c-0,1.26 1.023,2.283 2.283,2.283c1.26,0 2.284,-1.023 2.284,-2.283c-0,-1.261 -1.024,-2.284 -2.284,-2.284Z" class="connector-gold" />
                <path d="M136.357,218.001c1.868,-0 3.384,1.516 3.384,3.383c-0,1.868 -1.516,3.384 -3.384,3.384c-1.867,-0 -3.383,-1.516 -3.383,-3.384c-0,-1.867 1.516,-3.383 3.383,-3.383Zm0,1.1c-1.26,-0 -2.283,1.023 -2.283,2.283c-0,1.261 1.023,2.284 2.283,2.284c1.26,-0 2.284,-1.023 2.284,-2.284c-0,-1.26 -1.024,-2.283 -2.284,-2.283Z" class="connector-gold" />
                <path d="M136.357,229.115c1.868,0 3.384,1.517 3.384,3.384c-0,1.867 -1.516,3.383 -3.384,3.383c-1.867,0 -3.383,-1.516 -3.383,-3.383c-0,-1.867 1.516,-3.384 3.383,-3.384Zm0,1.1c-1.26,0 -2.283,1.024 -2.283,2.284c-0,1.26 1.023,2.283 2.283,2.283c1.26,0 2.284,-1.023 2.284,-2.283c-0,-1.26 -1.024,-2.284 -2.284,-2.284Z" class="connector-gold" />
                <path d="M136.357,240.23c1.868,0 3.384,1.516 3.384,3.384c-0,1.867 -1.516,3.383 -3.384,3.383c-1.867,0 -3.383,-1.516 -3.383,-3.383c-0,-1.868 1.516,-3.384 3.383,-3.384Zm0,1.1c-1.26,0 -2.283,1.023 -2.283,2.284c-0,1.26 1.023,2.283 2.283,2.283c1.26,0 2.284,-1.023 2.284,-2.283c-0,-1.261 -1.024,-2.284 -2.284,-2.284Z" class="connector-gold" />
                <path d="M136.357,251.345c1.868,-0 3.384,1.516 3.384,3.383c-0,1.868 -1.516,3.384 -3.384,3.384c-1.867,-0 -3.383,-1.516 -3.383,-3.384c-0,-1.867 1.516,-3.383 3.383,-3.383Zm0,1.1c-1.26,-0 -2.283,1.023 -2.283,2.283c-0,1.26 1.023,2.284 2.283,2.284c1.26,-0 2.284,-1.024 2.284,-2.284c-0,-1.26 -1.024,-2.283 -2.284,-2.283Z" class="connector-gold" />
                <path d="M136.357,262.459c1.868,0 3.384,1.517 3.384,3.384c-0,1.867 -1.516,3.383 -3.384,3.383c-1.867,0 -3.383,-1.516 -3.383,-3.383c-0,-1.867 1.516,-3.384 3.383,-3.384Zm0,1.1c-1.26,0 -2.283,1.024 -2.283,2.284c-0,1.26 1.023,2.283 2.283,2.283c1.26,0 2.284,-1.023 2.284,-2.283c-0,-1.26 -1.024,-2.284 -2.284,-2.284Z" class="connector-gold" />
                <path d="M136.357,273.574c1.868,0 3.384,1.516 3.384,3.384c-0,1.867 -1.516,3.383 -3.384,3.383c-1.867,-0 -3.383,-1.516 -3.383,-3.383c-0,-1.868 1.516,-3.384 3.383,-3.384Zm0,1.1c-1.26,0 -2.283,1.023 -2.283,2.284c-0,1.26 1.023,2.283 2.283,2.283c1.26,-0 2.284,-1.023 2.284,-2.283c-0,-1.261 -1.024,-2.284 -2.284,-2.284Z" class="connector-gold" />
            </g>
            <g id="pins1">
                <path d="M225.709,173.718c1.867,0 3.383,1.516 3.383,3.384c0,1.867 -1.516,3.383 -3.383,3.383c-1.867,-0 -3.383,-1.516 -3.383,-3.383c-0,-1.868 1.516,-3.384 3.383,-3.384Zm0,1.1c-1.26,0 -2.283,1.023 -2.283,2.284c-0,1.26 1.023,2.283 2.283,2.283c1.26,-0 2.283,-1.023 2.283,-2.283c0,-1.261 -1.023,-2.284 -2.283,-2.284Z" class="connector-gold" />
                <circle cx="225.709" cy="165.994" r="3.383" style="fill:#505050;fill-opacity:0.25;" />
                <path d="M225.709,162.61c1.867,0 3.383,1.516 3.383,3.384c0,1.867 -1.516,3.383 -3.383,3.383c-1.867,0 -3.383,-1.516 -3.383,-3.383c-0,-1.868 1.516,-3.384 3.383,-3.384Zm0,1.1c-1.26,0 -2.283,1.023 -2.283,2.284c-0,1.26 1.023,2.283 2.283,2.283c1.26,0 2.283,-1.023 2.283,-2.283c0,-1.261 -1.023,-2.284 -2.283,-2.284Z" class="connector-gold" />
                <path d="M225.709,151.502c1.867,0 3.383,1.516 3.383,3.384c0,1.867 -1.516,3.383 -3.383,3.383c-1.867,0 -3.383,-1.516 -3.383,-3.383c-0,-1.868 1.516,-3.384 3.383,-3.384Zm0,1.1c-1.26,0 -2.283,1.023 -2.283,2.284c-0,1.26 1.023,2.283 2.283,2.283c1.26,0 2.283,-1.023 2.283,-2.283c0,-1.261 -1.023,-2.284 -2.283,-2.284Z" class="connector-gold" />
                <path d="M225.709,184.826c1.867,0 3.383,1.516 3.383,3.383c0,1.868 -1.516,3.384 -3.383,3.384c-1.867,-0 -3.383,-1.516 -3.383,-3.384c-0,-1.867 1.516,-3.383 3.383,-3.383Zm0,1.1c-1.26,0 -2.283,1.023 -2.283,2.283c-0,1.261 1.023,2.284 2.283,2.284c1.26,-0 2.283,-1.023 2.283,-2.284c0,-1.26 -1.023,-2.283 -2.283,-2.283Z" class="connector-gold" />
                <path d="M225.709,195.934c1.867,-0 3.383,1.516 3.383,3.383c0,1.868 -1.516,3.384 -3.383,3.384c-1.867,-0 -3.383,-1.516 -3.383,-3.384c-0,-1.867 1.516,-3.383 3.383,-3.383Zm0,1.1c-1.26,-0 -2.283,1.023 -2.283,2.283c-0,1.261 1.023,2.284 2.283,2.284c1.26,-0 2.283,-1.023 2.283,-2.284c0,-1.26 -1.023,-2.283 -2.283,-2.283Z" class="connector-gold" />
                <path d="M225.709,207.042c1.867,-0 3.383,1.516 3.383,3.383c0,1.868 -1.516,3.384 -3.383,3.384c-1.867,-0 -3.383,-1.516 -3.383,-3.384c-0,-1.867 1.516,-3.383 3.383,-3.383Zm0,1.1c-1.26,-0 -2.283,1.023 -2.283,2.283c-0,1.261 1.023,2.284 2.283,2.284c1.26,-0 2.283,-1.023 2.283,-2.284c0,-1.26 -1.023,-2.283 -2.283,-2.283Z" class="connector-gold" />
                <path d="M225.709,218.15c1.867,-0 3.383,1.516 3.383,3.383c0,1.868 -1.516,3.384 -3.383,3.384c-1.867,-0 -3.383,-1.516 -3.383,-3.384c-0,-1.867 1.516,-3.383 3.383,-3.383Zm0,1.1c-1.26,-0 -2.283,1.023 -2.283,2.283c-0,1.261 1.023,2.284 2.283,2.284c1.26,-0 2.283,-1.023 2.283,-2.284c0,-1.26 -1.023,-2.283 -2.283,-2.283Z" class="connector-gold" />
                <path d="M225.709,229.258c1.867,-0 3.383,1.516 3.383,3.383c0,1.868 -1.516,3.384 -3.383,3.384c-1.867,-0 -3.383,-1.516 -3.383,-3.384c-0,-1.867 1.516,-3.383 3.383,-3.383Zm0,1.1c-1.26,-0 -2.283,1.023 -2.283,2.283c-0,1.26 1.023,2.284 2.283,2.284c1.26,-0 2.283,-1.024 2.283,-2.284c0,-1.26 -1.023,-2.283 -2.283,-2.283Z" class="connector-gold" />
                <path d="M225.709,240.366c1.867,-0 3.383,1.516 3.383,3.383c0,1.868 -1.516,3.384 -3.383,3.384c-1.867,-0 -3.383,-1.516 -3.383,-3.384c-0,-1.867 1.516,-3.383 3.383,-3.383Zm0,1.1c-1.26,-0 -2.283,1.023 -2.283,2.283c-0,1.26 1.023,2.284 2.283,2.284c1.26,-0 2.283,-1.024 2.283,-2.284c0,-1.26 -1.023,-2.283 -2.283,-2.283Z" class="connector-gold" />
                <path d="M225.709,251.474c1.867,-0 3.383,1.516 3.383,3.383c0,1.867 -1.516,3.384 -3.383,3.384c-1.867,-0 -3.383,-1.517 -3.383,-3.384c-0,-1.867 1.516,-3.383 3.383,-3.383Zm0,1.1c-1.26,-0 -2.283,1.023 -2.283,2.283c-0,1.26 1.023,2.284 2.283,2.284c1.26,-0 2.283,-1.024 2.283,-2.284c0,-1.26 -1.023,-2.283 -2.283,-2.283Z" class="connector-gold" />
                <path d="M225.709,262.582c1.867,-0 3.383,1.516 3.383,3.383c0,1.867 -1.516,3.383 -3.383,3.383c-1.867,0 -3.383,-1.516 -3.383,-3.383c-0,-1.867 1.516,-3.383 3.383,-3.383Zm0,1.1c-1.26,-0 -2.283,1.023 -2.283,2.283c-0,1.26 1.023,2.283 2.283,2.283c1.26,0 2.283,-1.023 2.283,-2.283c0,-1.26 -1.023,-2.283 -2.283,-2.283Z" class="connector-gold" />
                <path d="M225.709,273.69c1.867,-0 3.383,1.516 3.383,3.383c0,1.867 -1.516,3.383 -3.383,3.383c-1.867,0 -3.383,-1.516 -3.383,-3.383c-0,-1.867 1.516,-3.383 3.383,-3.383Zm0,1.1c-1.26,-0 -2.283,1.023 -2.283,2.283c-0,1.26 1.023,2.283 2.283,2.283c1.26,0 2.283,-1.023 2.283,-2.283c0,-1.26 -1.023,-2.283 -2.283,-2.283Z" class="connector-gold" />
            </g>
        </g>
        <g id="pins-labels">
            <g>
                <rect x="265.594" y="251.039" width="21.881" height="7.882" style="fill:#1bbc9b;" />
                <text x="266.493px" y="256.547px">Touch6</text>
            </g>
            <g>
                <rect x="265.594" y="228.743" width="21.881" height="7.882" style="fill:#1bbc9b;" />
                <text x="266.684px" y="234.251px">Touch3</text>
            </g>
            <g>
                <rect x="265.594" y="195.298" width="21.881" height="7.882" style="fill:#1bbc9b;" />
                <text x="266.493px" y="200.806px">Touch5</text>
            </g>
            <g>
                <rect x="115.254" y="173.123" width="13.658" height="7.882" style="fill:#7d91a8;" />
                <text x="117.274px" y="178.631px">D34</text>
            </g>
            <g>
                <rect x="115.254" y="161.948" width="13.658" height="7.882" style="fill:#7d91a8;" />
                <text x="117.274px" y="167.456px">D25</text>
            </g>
            <g>
                <rect x="115.254" y="150.773" width="13.658" height="7.882" style="fill:#7d91a8;" />
                <text x="117.274px" y="156.281px">D26</text>
            </g>
            <g>
                <rect x="98.552" y="173.123" width="13.658" height="7.882" style="fill:#ffe800;" />
                <text x="100.572px" y="178.631px">A02</text>
            </g>
            <g>
                <rect x="98.552" y="161.948" width="13.658" height="7.882" style="fill:#ff9a00;" />
                <text x="100.572px" y="167.456px">A01</text>
            </g>
            <g>
                <rect x="98.552" y="150.773" width="13.658" height="7.882" style="fill:#ff9a00;" />
                <text x="100.572px" y="156.281px">A00</text>
            </g>
            <g>
                <rect x="80.511" y="150.773" width="15.572" height="7.882" style="fill:#82d22d;" />
                <text x="81.807px" y="156.281px">DAC2</text>
            </g>
            <g>
                <rect x="80.511" y="161.948" width="15.572" height="7.882" style="fill:#82d22d;" />
                <text x="81.807px" y="167.456px">DAC1</text>
            </g>
            <g>
                <rect x="249.033" y="206.446" width="13.658" height="7.882" style="fill:#ff9a00;" />
                <text x="251.052px" y="211.954px">A10</text>
            </g>
            <g>
                <rect x="249.033" y="195.298" width="13.658" height="7.882" style="fill:#ff9a00;" />
                <text x="251.052px" y="200.806px">A11</text>
            </g>
            <g>
                <rect x="249.033" y="184.15" width="13.658" height="7.882" style="fill:#ff9a00;" />
                <text x="251.052px" y="189.658px">A12</text>
            </g>
            <g>
                <rect x="289.375" y="184.15" width="14.775" height="7.882" style="fill:#ff1241;" />
                <text x="291.953px" y="189.658px">LED</text>
            </g>
            <g>
                <rect x="232.871" y="173.001" width="13.658" height="7.882" style="fill:#cb2b2b;" />
                <text x="234.89px" y="178.509px">USB</text>
            </g>
            <g>
                <rect x="115.254" y="117.639" width="13.658" height="7.882" style="fill:#cb2b2b;" />
                <text x="117.274px" y="123.147px">3V3</text>
            </g>
            <g>
                <rect x="232.871" y="150.705" width="13.658" height="7.882" style="fill:#cb2b2b;" />
                <text x="234.89px" y="156.213px">BAT</text>
            </g>
            <g>
                <rect x="115.254" y="139.598" width="13.658" height="7.882" style="fill:#333;" />
                <text x="117.274px" y="145.106px" style="fill:#fff;">GND</text>
            </g>
            <g>
                <rect x="115.254" y="106.308" width="13.658" height="7.882" style="fill:#777;" />
                <text x="117.274px" y="111.816px" style="fill:#fff;">RST</text>
            </g>
            <g>
                <rect x="232.871" y="161.853" width="13.658" height="7.882" style="fill:#777;" />
                <text x="236.571px" y="167.361px" style="fill:#fff;">EN</text>
            </g>
            <g>
                <rect x="249.033" y="262.187" width="15.05" height="7.882" style="fill:#777;" />
                <text x="251.748px" y="267.695px" style="fill:#fff;">SCL</text>
            </g>
            <g>
                <rect x="249.033" y="273.336" width="15.05" height="7.882" style="fill:#777;" />
                <text x="251.748px" y="278.844px" style="fill:#fff;">SDA</text>
            </g>
            <g>
                <rect x="97.161" y="262.521" width="15.05" height="7.882" style="fill:#777;" />
                <text x="101.556px" y="268.029px" style="fill:#fff;">TX</text>
            </g>
            <g>
                <rect x="97.161" y="251.346" width="15.05" height="7.882" style="fill:#777;" />
                <text x="101.556px" y="256.854px" style="fill:#fff;">RX</text>
            </g>
            <g>
                <rect x="97.161" y="240.171" width="15.05" height="7.882" style="fill:#777;" />
                <text x="98.196px" y="245.679px" style="fill:#fff;">MISO</text>
            </g>
            <g>
                <rect x="97.161" y="228.997" width="15.05" height="7.882" style="fill:#777;" />
                <text x="98.196px" y="234.504px" style="fill:#fff;">MOSI</text>
            </g>
            <g>
                <rect x="97.161" y="217.822" width="15.05" height="7.882" style="fill:#777;" />
                <text x="99.876px" y="223.33px" style="fill:#fff;">SCK</text>
            </g>
            <g>
                <rect x="265.594" y="129.658" width="30.989" height="7.882" style="fill:#777;" />
                <text x="267.882px" y="135.166px" style="fill:#fff;">BAT SENS</text>
            </g>
            <g>
                <rect x="115.254" y="184.297" width="13.658" height="7.882" style="fill:#7d91a8;" />
                <text x="117.274px" y="189.805px">D39</text>
            </g>
            <g>
                <rect x="232.871" y="184.15" width="13.658" height="7.882" style="fill:#7d91a8;" />
                <text x="234.89px" y="189.658px">D13</text>
            </g>
            <g>
                <rect x="232.871" y="129.61" width="13.658" height="7.882" style="fill:#7d91a8;" />
                <text x="234.89px" y="135.118px">D35</text>
            </g>
            <g>
                <rect x="265.594" y="184.15" width="21.881" height="7.882" style="fill:#1bbc9b;" />
                <text x="266.493px" y="189.658px">Touch4</text>
            </g>
            <g>
                <rect x="115.254" y="195.472" width="13.658" height="7.882" style="fill:#7d91a8;" />
                <text x="117.274px" y="200.98px">D36</text>
            </g>
            <g>
                <rect x="232.871" y="195.298" width="13.658" height="7.882" style="fill:#7d91a8;" />
                <text x="234.89px" y="200.806px">D12</text>
            </g>
            <g>
                <rect x="115.254" y="206.647" width="13.658" height="7.882" style="fill:#7d91a8;" />
                <text x="117.274px" y="212.155px">D04</text>
            </g>
            <g>
                <rect x="232.871" y="206.446" width="13.658" height="7.882" style="fill:#7d91a8;" />
                <text x="234.89px" y="211.954px">D27</text>
            </g>
            <g>
                <rect x="115.254" y="217.822" width="13.658" height="7.882" style="fill:#7d91a8;" />
                <text x="117.274px" y="223.33px">D05</text>
            </g>
            <g>
                <rect x="232.871" y="217.594" width="13.658" height="7.882" style="fill:#7d91a8;" />
                <text x="234.89px" y="223.102px">D33</text>
            </g>
            <g>
                <rect x="115.254" y="228.997" width="13.658" height="7.882" style="fill:#7d91a8;" />
                <text x="117.274px" y="234.504px">D18</text>
            </g>
            <g>
                <rect x="232.871" y="228.743" width="13.658" height="7.882" style="fill:#7d91a8;" />
                <text x="234.89px" y="234.251px">D15</text>
            </g>
            <g>
                <rect x="115.254" y="240.171" width="13.658" height="7.882" style="fill:#7d91a8;" />
                <text x="117.274px" y="245.679px">D19</text>
            </g>
            <g>
                <rect x="232.871" y="239.891" width="13.658" height="7.882" style="fill:#7d91a8;" />
                <text x="234.89px" y="245.399px">D32</text>
            </g>
            <g>
                <rect x="115.254" y="251.346" width="13.658" height="7.882" style="fill:#7d91a8;" />
                <text x="117.274px" y="256.854px">D16</text>
            </g>
            <g>
                <rect x="232.871" y="251.039" width="13.658" height="7.882" style="fill:#7d91a8;" />
                <text x="234.89px" y="256.547px">D14</text>
            </g>
            <g>
                <rect x="115.254" y="262.521" width="13.658" height="7.882" style="fill:#7d91a8;" />
                <text x="117.274px" y="268.029px">D17</text>
            </g>
            <g>
                <rect x="232.871" y="262.187" width="13.658" height="7.882" style="fill:#7d91a8;" />
                <text x="234.89px" y="267.695px">D22</text>
            </g>
            <g>
                <rect x="115.254" y="273.696" width="13.658" height="7.882" style="fill:#7d91a8;" />
                <text x="117.274px" y="279.204px">D21</text>
            </g>
            <g>
                <rect x="232.871" y="273.336" width="13.658" height="7.882" style="fill:#7d91a8;" />
                <text x="234.89px" y="278.844px">D23</text>
            </g>
            <g>
                <rect x="98.552" y="184.297" width="13.658" height="7.882" style="fill:#ffe800;" />
                <text x="100.572px" y="189.805px">A03</text>
            </g>
            <g>
                <rect x="249.033" y="217.594" width="13.658" height="7.882" style="fill:#ffe800;" />
                <text x="251.052px" y="223.102px">A09</text>
            </g>
            <g>
                <rect x="249.033" y="129.61" width="13.658" height="7.882" style="fill:#ffe800;" />
                <text x="251.052px" y="135.118px">A13</text>
            </g>
            <g>
                <rect x="98.552" y="195.472" width="13.658" height="7.882" style="fill:#ffe800;" />
                <text x="100.572px" y="200.98px">A04</text>
            </g>
            <g>
                <rect x="249.033" y="228.743" width="13.658" height="7.882" style="fill:#ff9a00;" />
                <text x="251.052px" y="234.251px">A08</text>
            </g>
            <g>
                <rect x="98.552" y="206.647" width="13.658" height="7.882" style="fill:#ff9a00;" />
                <text x="100.572px" y="212.155px">A05</text>
            </g>
            <g>
                <rect x="249.033" y="239.891" width="13.658" height="7.882" style="fill:#ffe800;" />
                <text x="251.052px" y="245.399px">A07</text>
            </g>
            <g>
                <rect x="249.033" y="251.039" width="13.658" height="7.882" style="fill:#ff9a00;" />
                <text x="251.052px" y="256.547px">A06</text>
            </g>
        </g>
        <g id="pin-annotations">
            <text x="65.896px" y="201.273px" style="fill-opacity:0.6;">no OUTPUT</text>
            <text x="72.617px" y="268.322px" style="fill-opacity:0.6;">Serial1</text>
            <text x="65.896px" y="190.098px" style="fill-opacity:0.6;">no OUTPUT</text>
            <text x="72.617px" y="257.147px" style="fill-opacity:0.6;">Serial1</text>
            <text x="65.896px" y="178.924px" style="fill-opacity:0.6;">no OUTPUT</text>
            <g>
                <text x="18.849px" y="211.938px" style="fill-opacity:0.6;">can&apos;t read with WIFI on</text>
            </g>
            <g>
                <text x="289.375px" y="200.589px" style="fill-opacity:0.6;">can&apos;t read with WIFI on</text>
            </g>
            <g>
                <text x="306.696px" y="189.441px" style="fill-opacity:0.6;">can&apos;t read with WIFI on</text>
            </g>
            <g>
                <text x="289.375px" y="256.33px" style="fill-opacity:0.6;">can&apos;t read with WIFI on</text>
            </g>
            <text x="265.594px" y="267.524px" style="fill-opacity:0.6;">no pullup resistors!</text>
            <text x="265.594px" y="278.672px" style="fill-opacity:0.6;">no pullup resistors!</text>
            <g>
                <text x="289.375px" y="234.034px" style="fill-opacity:0.6;">can&apos;t read with WIFI on</text>
            </g>
            <g>
                <text x="-0.236px" y="156.064px" style="fill-opacity:0.6;">can&apos;t read with WIFI on</text>
            </g>
            <g>
                <text x="-0.236px" y="167.239px" style="fill-opacity:0.6;">can&apos;t read with WIFI on</text>
            </g>
            <g>
                <text x="265.594px" y="211.738px" style="fill-opacity:0.6;">can&apos;t read with WIFI on</text>
            </g>
        </g>
        <g id="board-annotations">
            <text x="281.857px" y="71.822px">LED #13</text>
            <g transform="matrix(0.24,0,0,0.24,1.79124,-37.961)">
                <text x="1337.26px" y="659.837px" style="font-size:23.333px;">BATTERY</text>
                <text x="1337.26px" y="683.17px" style="font-size:23.333px;">CONNECTOR</text>
            </g>
            <g transform="matrix(0.24,0,0,0.24,-205.565,-154.1)">
                <text x="1299.76px" y="659.837px" style="font-size:23.333px;">USB</text>
                <text x="1285.75px" y="683.17px" style="font-size:23.333px;">PORT</text>
            </g>
            <g transform="matrix(0.24,0,0,0.24,-205.565,-129.775)">
                <text x="1271.75px" y="659.837px" style="font-size:23.333px;">RESET</text>
                <text x="1257.75px" y="683.17px" style="font-size:23.333px;">BUTTON</text>
            </g>
            <g transform="matrix(0.24,0,0,0.24,-205.565,-101.598)">
                <text x="1257.75px" y="659.837px" style="font-size:23.333px;">CHARGE</text>
                <text x="1257.75px" y="683.17px" style="font-size:23.333px;">STATUS</text>
                <text x="1299.76px" y="706.504px" style="font-size:23.333px;">LED</text>
            </g>
            <path d="M181.106,83.031l-0,-77.489l-61.954,-0" style="fill:none;stroke:#00a3ff;stroke-width:0.7px;stroke-linecap:round;" />
            <path d="M159.528,117.082l0,-85.651l-40.376,0" style="fill:none;stroke:#00a3ff;stroke-width:0.7px;stroke-linecap:round;" />
            <path d="M154,90.6l0,-30l-34,0" style="fill:none;stroke:#00a3ff;stroke-width:0.7px;stroke-linecap:round;" />
            <path d="M207.744,93.182l0,-22.859l70.119,-0" style="fill:none;stroke:#00a3ff;stroke-width:0.7px;stroke-linecap:round;" />
            <path d="M318.606,122.12l-92,0" style="fill:none;stroke:#00a3ff;stroke-width:0.7px;stroke-linecap:round;" />
        </g>
    </g>
    <defs>
        <linearGradient id="gradient-usb" x1="0" y1="0" x2="1" y2="0" gradientUnits="objectBoundingBox">
            <stop offset="0" style="stop-color:#555; stop-opacity:1" />
            <stop offset="0.07" style="stop-color:#b7b7b7; stop-opacity:1" />
            <stop offset="0.93" style="stop-color:#b7b7b7; stop-opacity:1" />
            <stop offset="1" style="stop-color:#666; stop-opacity:1" />
        </linearGradient>

        <filter id="insetshadow" x="-50%" y="-50%" width="200%" height="200%">
            <feComponentTransfer in="SourceAlpha">
                <feFuncA type="table" tableValues="1 0" />
            </feComponentTransfer>
            <feGaussianBlur stdDeviation="0.5" />
            <feOffset dx="0" dy="-1.5" result="offsetblur" />
            <feFlood flood-color="rgba(0, 0, 0, 0.6)" result="color" />
            <feComposite in2="offsetblur" operator="in" />
            <feComposite in2="SourceAlpha" operator="in" />
            <feMerge>
                <feMergeNode in="SourceGraphic" />
                <feMergeNode />
            </feMerge>
        </filter>

        <filter id="innerglow" x="-50%" y="-50%" width="200%" height="200%">
            <feComponentTransfer in="SourceAlpha">
                <feFuncA type="table" tableValues="1 0" />
            </feComponentTransfer>
            <feGaussianBlur stdDeviation="0.9" />
            <feOffset dx="0" dy="0" result="offsetblur" />
            <feFlood flood-color="rgba(0, 0, 0, 0.9)" result="color" />
            <feComposite in2="offsetblur" operator="in" />
            <feComposite in2="SourceAlpha" operator="in" />
            <feMerge>
                <feMergeNode in="SourceGraphic" />
                <feMergeNode />
            </feMerge>
        </filter>

    </defs>
</svg>